<?xml version="1.0" standalone="no"?>
<!DOCTYPE svg PUBLIC "-//W3C//DTD SVG 20010904//EN"
 "http://www.w3.org/TR/2001/REC-SVG-20010904/DTD/svg10.dtd">
<svg version="1.0" xmlns="http://www.w3.org/2000/svg"
 width="600.000000pt" height="600.000000pt" viewBox="0 0 600.000000 600.000000"
 preserveAspectRatio="xMidYMid meet">

<g transform="translate(0.000000,600.000000) scale(0.100000,-0.100000)"
fill="#000000" stroke="none">
<path d="M2765 5963 c-131 -11 -165 -27 -165 -81 0 -39 33 -67 78 -66 122 1
233 17 257 36 32 25 32 62 0 93 -25 26 -50 28 -170 18z"/>
<path d="M3365 5938 c-28 -16 -35 -28 -35 -65 0 -45 23 -57 160 -83 228 -42
420 -100 638 -191 97 -41 105 -42 130 -28 40 22 51 62 26 96 -44 59 -414 191
-693 248 -161 32 -203 37 -226 23z"/>
<path d="M1977 5793 c-79 -24 -102 -94 -45 -136 24 -18 32 -19 65 -9 21 7 53
21 71 32 43 26 46 78 6 109 -30 24 -32 24 -97 4z"/>
<path d="M1296 5435 c-108 -56 -406 -326 -563 -509 -77 -90 -93 -114 -93 -142
0 -63 60 -94 106 -56 11 9 53 56 92 104 105 125 299 309 440 416 114 87 122
95 122 128 0 37 -28 74 -57 74 -10 0 -31 -7 -47 -15z"/>
<path d="M4792 5303 c-37 -31 -38 -66 -3 -106 17 -19 47 -42 66 -51 31 -15 38
-15 64 -2 32 17 47 56 32 85 -18 33 -91 91 -115 91 -13 0 -33 -8 -44 -17z"/>
<path d="M5285 4775 c-14 -13 -25 -33 -25 -44 0 -17 110 -192 147 -233 16 -18
69 -24 89 -10 6 4 16 17 23 29 15 30 -1 68 -74 172 -82 117 -113 134 -160 86z"/>
<path d="M382 4398 c-29 -32 -112 -215 -112 -248 0 -45 52 -78 94 -59 29 13
136 225 136 268 0 58 -76 83 -118 39z"/>
<path d="M5660 4157 c-46 -23 -47 -55 -6 -164 74 -198 130 -430 160 -663 12
-95 18 -118 36 -132 29 -23 51 -23 84 3 33 26 34 63 6 240 -27 175 -61 323
-111 475 -58 181 -82 232 -114 244 -31 12 -25 12 -55 -3z"/>
<path d="M108 3589 c-10 -5 -25 -35 -34 -65 -19 -66 -8 -106 35 -124 58 -24
99 21 103 112 3 73 -48 110 -104 77z"/>
<path d="M66 2799 c-21 -17 -26 -28 -26 -67 1 -198 137 -750 214 -867 22 -33
60 -42 91 -21 39 26 39 53 0 161 -76 211 -131 439 -155 640 -14 120 -25 154
-57 166 -33 12 -37 12 -67 -12z"/>
<path d="M5833 2598 c-27 -13 -44 -53 -46 -111 -2 -54 22 -87 65 -87 39 0 64
29 77 89 13 60 2 93 -36 110 -28 13 -31 13 -60 -1z"/>
<path d="M5622 1902 c-20 -13 -122 -230 -122 -261 0 -36 28 -61 68 -61 39 0
66 33 121 154 45 97 49 120 25 154 -16 23 -66 30 -92 14z"/>
<path d="M497 1505 c-40 -39 -29 -73 62 -202 59 -84 90 -108 126 -99 32 8 59
49 51 78 -3 13 -39 70 -79 128 -67 97 -75 105 -108 108 -23 2 -42 -3 -52 -13z"/>
<path d="M5264 1277 c-11 -6 -47 -43 -79 -82 -131 -159 -324 -340 -502 -474
-79 -59 -83 -63 -83 -101 0 -48 33 -76 77 -65 60 14 298 211 463 381 201 207
245 277 208 327 -18 22 -59 29 -84 14z"/>
<path d="M1060 840 c-24 -24 -25 -41 -6 -79 18 -33 84 -81 113 -81 35 0 66 33
66 70 0 27 -8 41 -44 72 -51 44 -97 50 -129 18z"/>
<path d="M1725 415 c-57 -56 -22 -97 137 -163 215 -88 427 -149 646 -187 125
-21 162 -8 162 60 0 47 -24 60 -140 80 -213 36 -443 104 -643 190 -59 25 -114
45 -122 45 -9 0 -27 -11 -40 -25z"/>
<path d="M3959 333 c-39 -20 -55 -35 -57 -52 -11 -72 32 -100 114 -76 83 24
109 81 59 130 -31 32 -49 31 -116 -2z"/>
<path d="M3200 178 c-120 -10 -153 -26 -158 -75 -2 -24 3 -36 25 -53 26 -21
34 -22 133 -16 58 4 122 12 142 17 57 15 76 66 41 108 -23 27 -56 31 -183 19z"/>
</g>
</svg>
