<?xml version="1.0" standalone="no"?>
<!DOCTYPE svg PUBLIC "-//W3C//DTD SVG 20010904//EN"
 "http://www.w3.org/TR/2001/REC-SVG-20010904/DTD/svg10.dtd">
<svg version="1.0" xmlns="http://www.w3.org/2000/svg"
 width="600.000000pt" height="600.000000pt" viewBox="0 0 600.000000 600.000000"
 preserveAspectRatio="xMidYMid meet">

<g transform="translate(0.000000,600.000000) scale(0.100000,-0.100000)"
fill="#000000" stroke="none">
<path d="M2720 5973 c-1150 -119 -2105 -850 -2517 -1928 -122 -320 -185 -676
-185 -1045 0 -213 9 -325 43 -520 113 -647 460 -1274 943 -1700 487 -430 1042
-676 1696 -751 143 -16 483 -13 639 5 1017 121 1878 727 2335 1643 174 348
285 759 302 1118 3 66 7 135 9 153 6 66 -14 370 -34 501 -112 725 -495 1398
-1059 1859 -450 367 -978 589 -1562 657 -113 14 -508 19 -610 8z m685 -178
c945 -152 1713 -712 2125 -1550 188 -380 276 -737 287 -1161 13 -496 -73 -893
-292 -1339 -139 -284 -309 -521 -529 -740 -439 -435 -970 -702 -1596 -800
-161 -26 -540 -31 -715 -11 -341 40 -613 120 -930 276 -563 276 -1000 709
-1281 1271 -197 393 -294 805 -294 1255 0 208 11 334 45 520 48 259 122 479
250 739 221 452 543 816 975 1103 138 92 411 231 563 287 214 78 476 140 697
164 130 15 576 6 695 -14z"/>
</g>
</svg>
