<?xml version="1.0" standalone="no"?>
<!DOCTYPE svg PUBLIC "-//W3C//DTD SVG 20010904//EN"
 "http://www.w3.org/TR/2001/REC-SVG-20010904/DTD/svg10.dtd">
<svg version="1.0" xmlns="http://www.w3.org/2000/svg"
 width="600.000000pt" height="600.000000pt" viewBox="0 0 600.000000 600.000000"
 preserveAspectRatio="xMidYMid meet">

<g transform="translate(0.000000,600.000000) scale(0.100000,-0.100000)"
fill="#000000" stroke="none">
<path d="M3401 5921 c-34 -34 -24 -100 16 -115 10 -4 74 -19 143 -33 236 -47
476 -131 696 -241 320 -161 545 -329 816 -611 126 -132 138 -142 169 -139 21
2 39 12 52 29 36 49 14 84 -182 280 -228 228 -406 364 -672 515 -269 152 -721
309 -954 331 -55 5 -65 3 -84 -16z"/>
<path d="M2350 5905 c-579 -136 -1066 -406 -1475 -820 -160 -161 -207 -224
-203 -266 4 -42 44 -73 81 -64 17 5 65 50 129 122 400 449 942 763 1533 888
66 14 130 33 142 41 33 21 40 60 16 92 -27 37 -87 38 -223 7z"/>
<path d="M5680 4107 c-49 -25 -48 -52 8 -229 86 -270 126 -491 138 -774 14
-315 -39 -682 -142 -987 -18 -56 -34 -114 -34 -129 0 -53 60 -85 109 -58 52
27 155 401 197 715 24 178 24 540 0 720 -42 313 -146 690 -204 735 -29 23 -38
24 -72 7z"/>
<path d="M231 4061 c-24 -24 -54 -105 -96 -256 -157 -572 -150 -1127 21 -1694
44 -144 72 -202 106 -221 25 -13 31 -13 55 0 50 28 52 59 10 178 -202 581
-206 1236 -11 1819 19 56 34 113 34 127 0 57 -78 88 -119 47z"/>
<path d="M5234 1240 c-11 -4 -65 -59 -120 -120 -390 -442 -942 -762 -1527
-885 -67 -14 -132 -33 -144 -41 -33 -21 -40 -60 -16 -92 19 -25 27 -27 84 -26
73 1 308 57 462 110 426 149 810 388 1128 704 151 150 229 246 229 281 0 50
-51 87 -96 69z"/>
<path d="M711 1194 c-38 -49 -26 -74 100 -210 391 -421 857 -705 1407 -858
128 -36 276 -66 322 -66 48 0 80 27 80 68 0 46 -35 70 -130 87 -283 53 -598
166 -843 301 -260 144 -422 268 -665 511 -211 211 -228 222 -271 167z"/>
</g>
</svg>
